<svg xmlns="http://www.w3.org/2000/svg" viewBox="0 0 100 100">
  <defs>
    <linearGradient id="s" x1="0" y1="0" x2="1" y2="0">
      <stop offset="0%" stop-color="#E36C0A"/>
      <stop offset="100%" stop-color="#F08A1C"/>
    </linearGradient>
    <linearGradient id="g" x1="0" y1="0" x2="1" y2="0">
      <stop offset="0%" stop-color="#4E9A2A"/>
      <stop offset="100%" stop-color="#8CC63F"/>
    </linearGradient>
  </defs>
  <rect width="100" height="100" rx="22" fill="#FFFDF7"/>
  <g transform="translate(0 19)">
    <path d="M2 40 C 20 10, 62 -2, 98 20 C 64 8, 26 16, 2 40 Z" fill="url(#s)"/>
    <path d="M12 36 C 34 56, 70 58, 92 40 C 70 52, 36 50, 12 36 Z" fill="url(#g)"/>
    <g transform="translate(50 33)" fill="none" stroke="#1F3A5F">
      <circle r="11.5" stroke-width="2.4"/>
      <circle r="2" fill="#1F3A5F" stroke="none"/>
      <g stroke-width="1.1">
        <line x2="0" y2="-10.5"/><line x2="0" y2="-10.5" transform="rotate(15)"/>
        <line x2="0" y2="-10.5" transform="rotate(30)"/><line x2="0" y2="-10.5" transform="rotate(45)"/>
        <line x2="0" y2="-10.5" transform="rotate(60)"/><line x2="0" y2="-10.5" transform="rotate(75)"/>
        <line x2="0" y2="-10.5" transform="rotate(90)"/><line x2="0" y2="-10.5" transform="rotate(105)"/>
        <line x2="0" y2="-10.5" transform="rotate(120)"/><line x2="0" y2="-10.5" transform="rotate(135)"/>
        <line x2="0" y2="-10.5" transform="rotate(150)"/><line x2="0" y2="-10.5" transform="rotate(165)"/>
        <line x2="0" y2="-10.5" transform="rotate(180)"/><line x2="0" y2="-10.5" transform="rotate(195)"/>
        <line x2="0" y2="-10.5" transform="rotate(210)"/><line x2="0" y2="-10.5" transform="rotate(225)"/>
        <line x2="0" y2="-10.5" transform="rotate(240)"/><line x2="0" y2="-10.5" transform="rotate(255)"/>
        <line x2="0" y2="-10.5" transform="rotate(270)"/><line x2="0" y2="-10.5" transform="rotate(285)"/>
        <line x2="0" y2="-10.5" transform="rotate(300)"/><line x2="0" y2="-10.5" transform="rotate(315)"/>
        <line x2="0" y2="-10.5" transform="rotate(330)"/><line x2="0" y2="-10.5" transform="rotate(345)"/>
      </g>
    </g>
  </g>
</svg>
